<?xml version="1.0" ?><svg id="outline" viewBox="0 0 340 340" xmlns="http://www.w3.org/2000/svg"><title/><path d="M170,58.872A111.129,111.129,0,1,0,281.128,170,111.254,111.254,0,0,0,170,58.872Zm0,215.333A104.2,104.2,0,1,1,274.205,170,104.322,104.322,0,0,1,170,274.205Z"/><path d="M124.918,141.27l-.628.8a13.359,13.359,0,0,0-2.817,8.877,96.98,96.98,0,0,0,4.442,25.8A3.511,3.511,0,0,0,130.408,179l7.224-2.618a13.3,13.3,0,0,0,8.184-8.682l.655-2.2,4.134,5.212a3.462,3.462,0,0,0,3.84,1.121l4.415-1.522a14.133,14.133,0,0,0,9.342-11.049l1.471-8.823v0l1.132-6.793a7.852,7.852,0,0,1,3.735-5.466,3.462,3.462,0,1,0-3.541-5.95,14.761,14.761,0,0,0-7.023,10.279l-1.132,6.793v0l-1.47,8.824a7.221,7.221,0,0,1-4.771,5.641l-2.1.723-6.746-8.506a3.462,3.462,0,0,0-6.031,1.166l-2.549,8.585a6.352,6.352,0,0,1-3.907,4.144l-3.721,1.349a104.226,104.226,0,0,1-3.164-20.61,6.43,6.43,0,0,1,1.356-4.275l.629-.805a10.013,10.013,0,0,0-.428-12.855,6.28,6.28,0,0,1-1.638-4.217c.231-36.068,27.506-42.9,28.656-43.175.045-.011.091-.021.136-.034a76.194,76.194,0,0,1,11.675-2.259,36.177,36.177,0,0,1,32.265,13.417,34.117,34.117,0,0,1,5.819,32.9,32.541,32.541,0,0,1-2.269,5.174,17.639,17.639,0,0,1-16.714,9.043,60.024,60.024,0,0,0-7.5-.07,3.462,3.462,0,0,0,.375,6.914,52.2,52.2,0,0,1,6.627.062,24.614,24.614,0,0,0,23.279-12.613,39.613,39.613,0,0,0,2.756-6.272,41.455,41.455,0,0,0-6.965-39.456,43.042,43.042,0,0,0-38.414-15.977,83.008,83.008,0,0,0-12.745,2.46c-2.343.607-33.645,9.513-33.9,49.846a13.2,13.2,0,0,0,3.4,8.878A3.1,3.1,0,0,1,124.918,141.27Z"/><path d="M215.576,221.557a21.174,21.174,0,0,0-6.861,3.175,5.411,5.411,0,0,1-5.8.241q-4.59-2.6-9.04-4.973c4.263-2.642,8.168-4.927,11.633-6.8a6,6,0,0,1,5.626.065,15.64,15.64,0,0,0,5.932,1.746c6.7.54,10.767-4.354,11.334-9.479a10.5,10.5,0,0,0-6.952-11.389c.061-4-.93-10.412-7.153-14.153a10.762,10.762,0,0,0-12.226.75,14.914,14.914,0,0,0-5.513,11.1,4.669,4.669,0,0,1-2.305,3.691c-4.773,2.845-12.338,7.537-21.577,13.889-10.69-4.982-19.18-8.427-23.655-10.169A4.664,4.664,0,0,1,146.139,196a14.91,14.91,0,0,0-7.276-10.039,10.765,10.765,0,0,0-12.181,1.285c-5.518,4.719-5.433,11.209-4.711,15.141A10.5,10.5,0,0,0,117,214.766c1.408,4.961,6.236,9.116,12.747,7.471a15.631,15.631,0,0,0,5.562-2.7h0a6.005,6.005,0,0,1,5.536-.995c4.007,1.372,8.307,3.021,12.692,4.816-2.775,2.14-5.515,4.3-8.177,6.465a5.407,5.407,0,0,1-5.756.723,21.194,21.194,0,0,0-7.292-2,12.366,12.366,0,0,0-10.948,4.939,11.693,11.693,0,0,0-1.615,11.252c1.027,2.679,3.373,5.949,8.719,7.255a12.707,12.707,0,0,0,11.927,7.916h.165a12.828,12.828,0,0,0,12.508-9.94l.061-.264a5.368,5.368,0,0,1,2.08-3.1c2.328-1.73,6.071-4.487,10.691-7.787a3.462,3.462,0,0,0-4.026-5.633c-4.663,3.332-8.445,6.116-10.8,7.864a12.292,12.292,0,0,0-4.706,7.148l-.039.17a5.866,5.866,0,0,1-5.855,4.619H140.4a5.763,5.763,0,0,1-5.79-4.409c-.033-.125-.053-.211-.054-.214a3.462,3.462,0,0,0-2.993-2.837c-3.851-.466-4.9-2.088-5.349-3.266a4.748,4.748,0,0,1,.69-4.623,5.451,5.451,0,0,1,4.843-2.189,14.291,14.291,0,0,1,4.912,1.36,12.437,12.437,0,0,0,13.068-1.615c3.607-2.932,7.358-5.866,11.155-8.736,14.246,6.19,28.222,13.18,35.1,16.7a5.378,5.378,0,0,1,2.564,2.715l.112.268a12.776,12.776,0,0,0,11.863,7.877,13.778,13.778,0,0,0,2.109-.165,12.714,12.714,0,0,0,10.616-9.808c5.057-2.174,6.827-5.788,7.4-8.6a11.7,11.7,0,0,0-3.456-10.832A12.353,12.353,0,0,0,215.576,221.557ZM197.8,201.479a11.592,11.592,0,0,0,5.67-9.2,8.142,8.142,0,0,1,2.93-6.141,3.819,3.819,0,0,1,4.333-.221c5.039,3.029,3.655,10,3.6,10.283a3.461,3.461,0,0,0,3.08,4.188q.485.043.938.107a3.632,3.632,0,0,1,3.174,4.268,3.5,3.5,0,0,1-3.888,3.341,8.759,8.759,0,0,1-3.312-.993,12.918,12.918,0,0,0-12.107-.007c-4.509,2.441-9.708,5.53-15.45,9.182q-3.514-1.791-6.854-3.419C187.491,207.762,193.7,203.924,197.8,201.479Zm26.061,32.591c-.25,1.239-1.014,3.011-4.735,4.109a3.51,3.51,0,0,0-2.482,3.267c0,.036,0,.12-.018.251a5.769,5.769,0,0,1-5.056,5.313,5.868,5.868,0,0,1-6.54-3.586l-.068-.165a12.29,12.29,0,0,0-5.823-6.266c-10.333-5.286-36.479-18.306-56.051-25.006a12.45,12.45,0,0,0-4.033-.668A13.187,13.187,0,0,0,131.149,214a8.726,8.726,0,0,1-3.1,1.527,3.5,3.5,0,0,1-4.387-2.649,3.634,3.634,0,0,1,2.425-4.737q.433-.135.9-.257a3.476,3.476,0,0,0,2.355-4.625c-.11-.281-2.628-6.932,1.84-10.753a3.809,3.809,0,0,1,4.31-.5,8.148,8.148,0,0,1,3.906,5.571,11.585,11.585,0,0,0,7.114,8.129,424.828,424.828,0,0,1,52.991,25.29,12.441,12.441,0,0,0,13.155-.571,14.319,14.319,0,0,1,4.618-2.155,5.474,5.474,0,0,1,5.139,1.358A4.746,4.746,0,0,1,223.861,234.07Z"/><path d="M184.749,132.7c2.943-.478,4.49-2.542,3.517-4.936a3.4,3.4,0,0,0-4.614-1.635l-.7.336a3.461,3.461,0,0,0-1.635,4.614A3.115,3.115,0,0,0,184.749,132.7Z"/><path d="M139.247,138.148a3.461,3.461,0,0,0,3.42,2.959,3.517,3.517,0,0,0,.509-.037c21.706-3.191,24.755-18.958,24.96-20.189a26.78,26.78,0,0,0,.694-4.712,16.088,16.088,0,0,0-5.275-12.844,12.651,12.651,0,0,0-15.381-1.372,18.37,18.37,0,0,0-6.55,7.191c-.371.768-2.242,5.051-2.411,13.628a11.091,11.091,0,0,0,5.049,9.741,13.794,13.794,0,0,0,1.627.954,35.3,35.3,0,0,1-3.721.753A3.462,3.462,0,0,0,139.247,138.148Zm8.592-25.954c.026-.053.052-.106.076-.159a11.727,11.727,0,0,1,4.016-4.266,5.725,5.725,0,0,1,6.954.666,9.194,9.194,0,0,1,3.033,7.331h0c-.256,4.4-1.669,7.8-4.2,10.091a7.813,7.813,0,0,1-9.539.947,4.241,4.241,0,0,1-2.044-3.9C146.279,115.568,147.84,112.194,147.839,112.194Z"/><path d="M107.4,178.434,82.978,163.305a3.462,3.462,0,0,0-3.646,5.886L88,174.558l-6.978,7.821a3.462,3.462,0,0,0,5.166,4.609l7.787-8.728,9.782,6.06a3.462,3.462,0,1,0,3.646-5.886Z"/><path d="M100.765,168.908a3.454,3.454,0,0,0,2.585-1.158l1.821-2.041a3.462,3.462,0,1,0-5.166-4.61l-1.822,2.042a3.463,3.463,0,0,0,2.582,5.767Z"/><path d="M232.1,141.879a3.462,3.462,0,1,0,0,6.923h2.172a2.868,2.868,0,0,1,2.864,2.864v23.262h-4.276a3.462,3.462,0,1,0,0,6.923h26.221a3.462,3.462,0,1,0,0-6.923h-.891a2.868,2.868,0,0,1-2.864-2.864V148.8h3.755a3.462,3.462,0,1,0,0-6.923Zm16.732,33.049H244.06V151.666a9.746,9.746,0,0,0-.43-2.864H248.4v23.262A9.755,9.755,0,0,0,248.833,174.928Z"/><path d="M170,8.121A162.246,162.246,0,0,0,68.1,44.209a3.462,3.462,0,0,0,4.361,5.378,155.314,155.314,0,0,1,94.077-34.5V42.959a126.372,126.372,0,0,0-38.64,7.128L122.91,37.026a3.462,3.462,0,0,0-6.467,2.471l4.991,13.067a127.435,127.435,0,0,0-38.774,25.2L60.43,55.534a3.462,3.462,0,0,0-4.9,0A160.82,160.82,0,0,0,8.121,170c0,46.29,18.452,83.38,46.419,113.7,19.574,21.221,62.018,48.18,115.46,48.18a162.034,162.034,0,0,0,103.912-37.748,3.462,3.462,0,1,0-4.447-5.306,155.1,155.1,0,0,1-96,36.091V297.042a126.366,126.366,0,0,0,38.639-7.128l4.989,13.06a3.462,3.462,0,1,0,6.467-2.471l-4.99-13.066a127.435,127.435,0,0,0,38.774-25.2l22.229,22.23a3.461,3.461,0,0,0,4.895,0A160.682,160.682,0,0,0,280.07,52.32C254.189,28.556,215.349,8.121,170,8.121ZM281.988,277.093l-19.752-19.752a127.653,127.653,0,0,0,22.318-32.323l12.77,5.711a3.462,3.462,0,1,0,2.826-6.32l-12.767-5.71a126.279,126.279,0,0,0,9.659-45.237h27.872A153.816,153.816,0,0,1,281.988,277.093ZM297.02,166.538a126.548,126.548,0,0,0-7.038-38.665l12.992-4.963a3.462,3.462,0,0,0-2.471-6.468l-13.012,4.971A127.031,127.031,0,0,0,269.74,91.227a3.461,3.461,0,1,0-5.43,4.294,119.92,119.92,0,0,1,17.785,31,3.2,3.2,0,0,0,.413,1.114A120.295,120.295,0,0,1,121.476,280a3.5,3.5,0,0,0-.531-.305,3.441,3.441,0,0,0-.52-.172,120.178,120.178,0,0,1-35.4-24.555,3.462,3.462,0,0,0-4.9,0L58.062,277.042a154.418,154.418,0,0,1-42.974-103.58H42.981a126.5,126.5,0,0,0,7.04,38.664L37.026,217.09a3.462,3.462,0,1,0,2.471,6.468l13.013-4.972a127,127,0,0,0,17.649,30.058,3.461,3.461,0,1,0,5.436-4.286,119.9,119.9,0,0,1-17.687-30.875,3.444,3.444,0,0,0-.163-.6,3.488,3.488,0,0,0-.228-.453A120.3,120.3,0,0,1,218.525,60a2.75,2.75,0,0,0,1.029.466,120.159,120.159,0,0,1,35.417,24.565,3.461,3.461,0,0,0,4.895,0l22.071-22.071a154.414,154.414,0,0,1,42.975,103.58Zm-214.4,95.741a127.014,127.014,0,0,0,32.338,22.337l-5.683,12.708a3.462,3.462,0,1,0,6.321,2.827l5.679-12.7a126.7,126.7,0,0,0,45.268,9.591v27.87A154.413,154.413,0,0,1,62.958,281.938ZM58.012,62.907,77.764,82.66a127.644,127.644,0,0,0-22.317,32.322l-12.771-5.711a3.462,3.462,0,0,0-2.826,6.32l12.767,5.71a126.278,126.278,0,0,0-9.658,45.237H15.086A153.816,153.816,0,0,1,58.012,62.907ZM257.383,77.721a126.992,126.992,0,0,0-32.337-22.337l5.683-12.708a3.462,3.462,0,1,0-6.321-2.827l-5.679,12.7a126.715,126.715,0,0,0-45.267-9.59V15.088a154.416,154.416,0,0,1,103.58,42.974Z"/></svg>