<?xml version="1.0" ?><svg id="outline" viewBox="0 0 340 340" xmlns="http://www.w3.org/2000/svg"><title/><path d="M16.988,213.635a19.4,19.4,0,0,0,9.816,2.418,31.809,31.809,0,0,0,7.274-.915,32.033,32.033,0,0,0,5.6,4.059A99.8,99.8,0,0,0,31.8,249.22a17.366,17.366,0,0,0,17.26,19.093H68.487a55.269,55.269,0,1,0-2.754-6.923H49.062a10.273,10.273,0,0,1-7.7-3.409,10.543,10.543,0,0,1-2.672-8.092c3.542-36.463,29.43-75.709,77.9-75.709,40.043,0,57.578,27.23,63.259,38.937a41.753,41.753,0,0,0,12.023,14.922c9.822,7.523,11.852,19.556,11.824,28.325a5.157,5.157,0,0,1-5.125,5.026h-17.9a3.462,3.462,0,0,0,0,6.923h17.9a12.028,12.028,0,0,0,12.048-11.927c.033-10.335-2.463-24.6-14.538-33.844a34.825,34.825,0,0,1-10-12.448c-4.875-10.049-24.3-42.837-69.487-42.837-24.574,0-45.854,9.477-61.54,27.408A93,93,0,0,0,42.666,212.92a27.7,27.7,0,0,1-11.351-13.934C25.27,180.72,29.71,168.423,35.9,160.593A162.858,162.858,0,0,0,46,189.786a3.816,3.816,0,0,0,4.579,1.734,3.161,3.161,0,0,0,1.734-4.578A146.235,146.235,0,0,1,40.8,149.747a6.051,6.051,0,0,1,3.873-6.634l8.778-3.179a1.587,1.587,0,0,1,2.033,1.157A153.628,153.628,0,0,0,65.663,174.2a3.462,3.462,0,1,0,6.32-2.826,144.365,144.365,0,0,1-8.974-28.012C82.432,134.2,104.1,124.58,127.5,114.735c2.557,13.214,7.6,33.531,16.773,51.992a3.462,3.462,0,0,0,6.2-3.082c-10.272-20.671-15.192-43.912-17.211-55.926a4.3,4.3,0,0,1,2.7-4.71l10.855-4.153a2.562,2.562,0,0,1,2.234.177,2.653,2.653,0,0,1,1.291,1.892c3.345,21.3,11.549,41.5,18.826,56.249.048.1.095.209.151.307,3.935,7.948,7.588,14.291,10.036,18.322a2.621,2.621,0,0,1-1.01,3.678l-1,.533a3.462,3.462,0,1,0,3.253,6.112l1-.533a9.528,9.528,0,0,0,3.793-13.165c20.829-10.076,40.009-19.538,57.083-28.161.06.059.116.121.176.18a10.756,10.756,0,0,0,7.56,3.1,10.938,10.938,0,0,0,5.169-1.307l7.057-3.783a9.039,9.039,0,0,0,4.369-10.66c11.8-6.15,21.948-11.616,30.248-16.295a9.741,9.741,0,0,0,4.09,2.695,9.728,9.728,0,0,0,7.62-.529l5.284-2.682a14.82,14.82,0,0,0,7.453-17.642c-3.219-10.408-10.5-30.79-23.138-50.354a14.716,14.716,0,0,0-17.5-5.823l-6.311,2.3a9.769,9.769,0,0,0-6.427,9.625c-6.771,2.394-13.926,4.958-21.348,7.658a3.461,3.461,0,1,0,2.366,6.506c7.373-2.681,14.48-5.229,21.21-7.608l13.356,28.432a7.545,7.545,0,0,1-2.76,9.527c-5.565,3.559-14.368,9.019-25.474,15.343-6.967-12.692-14.226-29.585-15.063-45.99a7.713,7.713,0,0,0-3.487-6.1,7.893,7.893,0,0,0-7.049-.826l-11.552,4.236a10.846,10.846,0,0,0-7.106,9.675c-19.083,7.221-37.8,14.535-55.735,21.773a9.511,9.511,0,0,0-11.133-3.334L133.5,96.542a11.246,11.246,0,0,0-7.182,11.184c-23.688,9.943-45.637,19.665-65.32,28.933a8.434,8.434,0,0,0-9.9-3.235L42.321,136.6c-5.8,2.1-9.69,8.014-8.123,15.544a41.855,41.855,0,0,0-12.326,24.929c-11.156,4.3-16.026,13.5-13.055,24.977C10.2,207.4,12.951,211.3,16.988,213.635Zm101.349-17.481A48.334,48.334,0,1,1,70,244.487,48.388,48.388,0,0,1,118.337,196.154Zm63.56-29.723c-1.441-2.547-3.047-5.5-4.738-8.789,15.394-5.73,31.39-12.639,47.621-20.6a3.462,3.462,0,1,0-3.048-6.216,515.784,515.784,0,0,1-47.667,20.576c-6.4-13.377-13.235-30.758-16.457-49.072,17.581-7.1,35.932-14.278,54.643-21.369,2.914,14.1,9.987,39.5,25.381,58C220.9,147.4,202.176,156.624,181.9,166.431ZM276.925,49.976l6.31-2.3a7.922,7.922,0,0,1,9.317,3.072c12.184,18.869,19.227,38.576,22.341,48.645a7.913,7.913,0,0,1-3.973,9.423l-5.283,2.681a2.879,2.879,0,0,1-3.908-1.343L289.978,85.139l0-.012-1.194-2.541h0L275.305,53.9A3.074,3.074,0,0,1,276.925,49.976Zm7.756,53.465a14.3,14.3,0,0,0,4.259-4.227l4.8,10.217c-8.33,4.7-18.558,10.206-30.484,16.417-1.313-1.989-2.784-4.3-4.333-6.89C270.146,112.566,279.049,107.044,284.681,103.441ZM220.71,70.777l11.551-4.237a.937.937,0,0,1,.847.1.841.841,0,0,1,.393.676c1.388,27.232,18.942,55.2,26.423,65.96a2.088,2.088,0,0,1,.318,1.7,2.121,2.121,0,0,1-1.07,1.387l-7.057,3.783a3.952,3.952,0,0,1-4.6-.631c-19.578-19.255-27.032-51.417-29.329-64.351A3.933,3.933,0,0,1,220.71,70.777ZM21.583,184.8a59.963,59.963,0,0,0,3.134,16.278,31.89,31.89,0,0,0,4.035,7.944,14.117,14.117,0,0,1-8.294-1.38c-2.407-1.394-4.022-3.79-4.938-7.326C13.684,193.223,15.727,188.024,21.583,184.8Z"/><path d="M118.337,284.654a40.167,40.167,0,1,0-40.166-40.167A40.212,40.212,0,0,0,118.337,284.654Zm-12.827-9.5,12.827-12.826,12.827,12.826a33.212,33.212,0,0,1-25.654,0Zm46.07-30.667A33.06,33.06,0,0,1,149,257.314l-12.826-12.827L149,231.66A33.06,33.06,0,0,1,151.58,244.487Zm-20.416-30.666-12.827,12.826L105.51,213.821a33.224,33.224,0,0,1,25.654,0Zm-31.947,3.5,16.672,16.673a3.461,3.461,0,0,0,4.9,0l16.673-16.673a33.512,33.512,0,0,1,8.049,8.049L128.834,242.04a3.461,3.461,0,0,0,0,4.9l16.672,16.672a33.534,33.534,0,0,1-8.049,8.05l-16.673-16.673a3.461,3.461,0,0,0-4.9,0L99.217,271.656a33.512,33.512,0,0,1-8.049-8.049l16.672-16.672a3.461,3.461,0,0,0,0-4.9L91.168,225.368A33.5,33.5,0,0,1,99.217,217.318ZM85.094,244.487a33.055,33.055,0,0,1,2.577-12.826L100.5,244.487,87.671,257.314A33.057,33.057,0,0,1,85.094,244.487Z"/><path d="M265.82,223.909a10.928,10.928,0,0,1,5.452-9.435,3.462,3.462,0,0,0-3.461-6,17.871,17.871,0,0,0-8.915,15.431,3.462,3.462,0,0,0,6.924,0Z"/><path d="M241.874,254.917a17.866,17.866,0,0,0-8.914,15.43,3.462,3.462,0,1,0,6.923,0,10.924,10.924,0,0,1,5.453-9.434,3.462,3.462,0,0,0-3.462-6Z"/><path d="M288.294,273.809a3.463,3.463,0,0,0,3.462-3.462,10.925,10.925,0,0,1,5.452-9.434,3.462,3.462,0,0,0-3.462-6,17.866,17.866,0,0,0-8.914,15.43A3.462,3.462,0,0,0,288.294,273.809Z"/><circle cx="118.337" cy="244.487" r="3.462"/><circle cx="256.23" cy="257.271" r="3.462"/><circle cx="282.899" cy="211.476" r="3.462"/><circle cx="309.457" cy="257.914" r="3.462"/><path d="M302.641,240.95c-.694,0-1.38.033-2.062.08a29.4,29.4,0,1,0-47.749,0c-.682-.047-1.368-.08-2.061-.08A29.4,29.4,0,1,0,276.7,284.169a29.394,29.394,0,1,0,25.937-43.219ZM276.7,201.435a22.474,22.474,0,1,1-22.474,22.474A22.5,22.5,0,0,1,276.7,201.435Zm-25.935,91.386a22.474,22.474,0,1,1,22.474-22.474A22.5,22.5,0,0,1,250.769,292.821Zm51.872,0a22.474,22.474,0,1,1,22.474-22.474A22.5,22.5,0,0,1,302.641,292.821Z"/></svg>