<?xml version="1.0" ?><svg id="outline" viewBox="0 0 340 340" xmlns="http://www.w3.org/2000/svg"><title/><path d="M275.95,247.731a13.945,13.945,0,0,0,4.065-10c-.4-44.2-1.195-122.137-1.52-153.592A13.664,13.664,0,0,0,262.539,70.8l-.906.154a46.965,46.965,0,0,1-19.063-.671,54.121,54.121,0,0,0-12.8-1.535H79.118a16.43,16.43,0,0,0-16.43,16.431v151.29a13.189,13.189,0,0,0,10.006,12.815,87.1,87.1,0,0,0,21.1,2.6H265.98A13.942,13.942,0,0,0,275.95,247.731ZM69.612,236.473V85.183a9.5,9.5,0,0,1,9.506-9.507H229.774a47.281,47.281,0,0,1,11.159,1.337,53.78,53.78,0,0,0,21.86.77l.907-.154a6.743,6.743,0,0,1,7.872,6.577c.325,31.455,1.124,109.385,1.519,153.583a7.109,7.109,0,0,1-7.111,7.173h-15.2l-.342-9.355a11.305,11.305,0,0,0,4.036-11.364c-2.275-10.427-10.832-29.085-42.532-37.093-2.294-.875-4.694-1.687-7.163-2.445A26.89,26.89,0,0,0,209.7,172.8a3.461,3.461,0,0,0-5.824-2.956l1.759-6.093.011-.006a12.37,12.37,0,0,0,5.326-8.132,48.579,48.579,0,0,0,.655-5.279,12.371,12.371,0,0,0-3.284-9.273,12.614,12.614,0,0,0-1.036-.981c-.272-2.165-.654-4.375-1.138-6.613a15.74,15.74,0,0,0,12.054-7.162,55.049,55.049,0,0,0,7.481-18.608,8.567,8.567,0,0,0-12.361-9.347h0l-.217.113a4.147,4.147,0,0,1-5.148-1.121,47.929,47.929,0,0,0-12.155-10.517,51.223,51.223,0,0,0-54.442.781,47.652,47.652,0,0,0-10.876,9.685,4.269,4.269,0,0,1-5.252,1.139l-.139-.074a8.55,8.55,0,0,0-12.378,9.341,54.985,54.985,0,0,0,7.549,18.711,15.655,15.655,0,0,0,10.267,6.84c-1.606,11.273-.929,21.422,2.038,30.2a3.461,3.461,0,0,0,6.559-2.215c-2.641-7.817-3.214-16.987-1.709-27.291h18.047a112.075,112.075,0,0,0,20.18,13.448,11.339,11.339,0,0,0,2.873,9.1c4.905,5.437,12.282,7.936,17.6,9.074a12.57,12.57,0,0,0,1.4.214,34.234,34.234,0,0,1-2.565,4.912,15.036,15.036,0,0,1-2.918-1.838l-.034-.028c-8.186-6.676-17.612-4.777-22.809-2.24-5.2-2.536-14.626-4.435-22.841,2.267-.705.584-7.024,5.57-11.816.988a3.461,3.461,0,0,0-5.824,2.956,26.886,26.886,0,0,0,5.353,12.484c-1.822.591-3.6,1.214-5.321,1.868-31.7,8.01-40.253,26.666-42.527,37.092a11.312,11.312,0,0,0,4.035,11.365l-.337,9.251a80.21,80.21,0,0,1-15.572-2.288A6.275,6.275,0,0,1,69.612,236.473Zm24.474-6.741a4.468,4.468,0,0,1-1.076-4.013c2.227-10.209,9.843-23.509,33.088-30.64l-.416,6.756a4.7,4.7,0,0,1-3.591,4.312c-5.822,1.315-15.993,5.607-18.687,19.558a6.535,6.535,0,0,1-5.413,5.37l-.207.027A4.245,4.245,0,0,1,94.086,229.732Zm3.034,8.324c.031,0,.061,0,.092,0a11.668,11.668,0,0,0,1.451-.091l.237-.031a13.454,13.454,0,0,0,11.3-10.921c1.485-7.692,6-12.442,13.417-14.118a11.665,11.665,0,0,0,8.972-10.636l.578-9.356c2.231-.8,4.559-1.545,6.947-2.228a22.524,22.524,0,0,0,8.544,3.03l1.653,51.252H96.868ZM205.013,126.59H133.432a8.764,8.764,0,0,1-7.354-3.975,38.469,38.469,0,0,1-6.571-16.368,1.7,1.7,0,0,1,2.608-1.646,11.212,11.212,0,0,0,13.744-2.919,40.757,40.757,0,0,1,9.3-8.275,44.272,44.272,0,0,1,47.051-.677,41.042,41.042,0,0,1,10.409,8.995,11.147,11.147,0,0,0,13.68,2.891l.261-.136a1.613,1.613,0,0,1,1.767.157,1.543,1.543,0,0,1,.61,1.609,48.211,48.211,0,0,1-6.514,16.281A8.835,8.835,0,0,1,205.013,126.59Zm-5.817,7.353c.248,1.072.463,2.136.657,3.192-.2-.01-12.54-.032-12.54-.032a11.562,11.562,0,0,0-8.792,3.967,102.141,102.141,0,0,1-11.652-7.127ZM182.924,146.9a4.7,4.7,0,0,1,4.389-2.875h11.936a5.459,5.459,0,0,1,4.032,1.753,5.353,5.353,0,0,1,1.443,4.066,41.983,41.983,0,0,1-.56,4.526,5.5,5.5,0,0,1-2.368,3.619,5.437,5.437,0,0,1-4.2.806c-4.324-.925-10.248-2.878-13.912-6.94A4.49,4.49,0,0,1,182.924,146.9Zm17.534,31.731c-2.27,4.063-6.594,8.448-14.689,8.448h-.109c-.095,0-10.022.194-13.284-7.019a3.462,3.462,0,0,0-6.308,0c-3.262,7.21-13.182,7.01-13.27,7.019h-.122c-8.095,0-12.42-4.385-14.689-8.446,5.237.409,10.214-2.258,12.8-4.442,7.675-6.26,16.2-.961,16.543-.743a3.494,3.494,0,0,0,3.765.01c.359-.227,8.869-5.518,16.539.717C190.26,176.382,195.243,179.052,200.458,178.633Zm-44.866,15.22c3.535-.392,9.408-1.738,13.63-6.21,5.365,5.681,13.4,6.307,15.906,6.359l-.465,14.445c-9.309-.645-10.608-6.559-10.725-7.239a3.461,3.461,0,0,0-6.488-1.143c-2.6,4.906-6.346,7.431-11.408,7.736Zm.673,20.879a19.514,19.514,0,0,0,13.654-6.222c2.594,3.334,7.15,6.39,14.521,6.853l-.955,29.6H157.24Zm35.814-21.47a21.965,21.965,0,0,0,6.932-3.019c2.959.8,5.82,1.7,8.546,2.672l.577,9.351a11.665,11.665,0,0,0,8.974,10.634c7.416,1.676,11.929,6.426,13.415,14.118a13.457,13.457,0,0,0,11.314,10.923l.238.03a11.529,11.529,0,0,0,1.443.091c.029,0,.058,0,.087,0l.252,6.9H190.412Zm54.559,36.47a4.232,4.232,0,0,1-3.687,1.371l-.206-.026a6.54,6.54,0,0,1-5.424-5.372c-2.695-13.951-12.865-18.242-18.686-19.558a4.7,4.7,0,0,1-3.591-4.31l-.417-6.758c23.245,7.131,30.861,20.431,33.088,30.64A4.463,4.463,0,0,1,246.638,229.732Z"/><path d="M303.423,201.781c-2.148-34.946-2.835-91.671-3.033-133.1a3.461,3.461,0,0,0-3.461-3.445h-.017a3.462,3.462,0,0,0-3.446,3.478c.2,41.522.889,98.388,3.047,133.5a47.79,47.79,0,0,1-3.564,20.97c-3.177,7.722-5.524,19.5,1.05,32.087l.887,65.633a4.917,4.917,0,0,1-4.916,4.984H217.979a12.676,12.676,0,0,1-6.1-1.526c-5.566-3.06-16.525-7.394-27.386-2.042a32.531,32.531,0,0,1-14.414,3.568H49.3a4.938,4.938,0,0,1-4.918-4.831c-.464-28.028-1.847-123.6-.189-176.614a24.35,24.35,0,0,1,3.457-11.814c3.453-5.715,6.679-15.664,2.439-30.6a29.07,29.07,0,0,1-.571-13.439,26.324,26.324,0,0,0-.727-12.255,73.54,73.54,0,0,1-3.069-18.637l-1-39.152a4.307,4.307,0,0,1,4.308-4.417H73.96l6.113,11.352a3.463,3.463,0,0,0,5.834.415l2.511-3.405a15.263,15.263,0,0,1,12.233-6.176H287.959a5.471,5.471,0,0,1,5.477,5.491c-.02,5.455-.022,20.382-.022,29.286a3.472,3.472,0,0,1-2.824,3.459c-3.862.687-7.011,2.542-8.642,5.091a3.461,3.461,0,0,0,5.832,3.73,6.281,6.281,0,0,1,4.022-2,10.39,10.39,0,0,0,8.536-10.277c0-8.9,0-23.809.022-29.259a12.4,12.4,0,0,0-12.4-12.44H100.651A22.224,22.224,0,0,0,83.6,17.413l-4.521-8.4A3.462,3.462,0,0,0,76.028,7.2H49.038a11.232,11.232,0,0,0-11.23,11.517l1,39.152a80.312,80.312,0,0,0,3.338,20.379,19.491,19.491,0,0,1,.575,9.054,36.442,36.442,0,0,0,.715,16.612c3.56,12.545,1.038,20.591-1.7,25.131a31.281,31.281,0,0,0-4.451,15.178C35.613,197.39,37,293.1,37.463,321.163A11.892,11.892,0,0,0,49.3,332.8H170.077a39.39,39.39,0,0,0,17.475-4.281c8.045-3.967,16.6-.513,20.989,1.9a19.637,19.637,0,0,0,9.438,2.382H289.97a11.842,11.842,0,0,0,11.839-12l-.9-66.475a3.471,3.471,0,0,0-.428-1.622c-5.766-10.484-3.8-20.413-1.131-26.9A54.729,54.729,0,0,0,303.423,201.781Z"/><path d="M136.312,34.646a3.462,3.462,0,0,0-3.058-1.84H124.4l-4.47-7.3a3.461,3.461,0,0,0-5.9,0l-4.47,7.3h-8.858a3.462,3.462,0,0,0-2.865,5.4l5.784,8.533-2.546,10.47a3.462,3.462,0,0,0,4.737,4l11.119-4.8,10.251,4.764a3.462,3.462,0,0,0,4.873-3.717l-1.792-10.591,5.865-8.652A3.462,3.462,0,0,0,136.312,34.646Zm-13.117,12,.926,5.47-5.689-2.644a6.683,6.683,0,0,0-2.832-.038L109.435,52.1l1.267-5.21a3.459,3.459,0,0,0-.5-2.761l-2.981-4.4h4.269a3.461,3.461,0,0,0,2.952-1.655l2.53-4.132,2.53,4.132a3.462,3.462,0,0,0,2.953,1.655h4.268l-2.981,4.4A3.463,3.463,0,0,0,123.2,46.647Z"/><path d="M242.332,34.646a3.464,3.464,0,0,0-3.059-1.84h-8.858l-4.47-7.3a3.461,3.461,0,0,0-5.9,0l-4.469,7.3h-8.859a3.462,3.462,0,0,0-2.866,5.4l5.784,8.533-2.545,10.47a3.462,3.462,0,0,0,4.737,4l11.118-4.8,10.252,4.764a3.461,3.461,0,0,0,4.872-3.717l-1.792-10.591,5.865-8.652A3.46,3.46,0,0,0,242.332,34.646Zm-13.117,12,.926,5.47-5.689-2.644a6.684,6.684,0,0,0-2.832-.038L215.455,52.1l1.266-5.21a3.463,3.463,0,0,0-.5-2.761l-2.981-4.4h4.269a3.461,3.461,0,0,0,2.952-1.655l2.53-4.132,2.53,4.132a3.461,3.461,0,0,0,2.952,1.655h4.269l-2.981,4.4A3.463,3.463,0,0,0,229.215,46.647Z"/><path d="M189.322,34.646a3.464,3.464,0,0,0-3.059-1.84h-8.858l-4.47-7.3a3.461,3.461,0,0,0-5.9,0l-4.469,7.3H153.7a3.462,3.462,0,0,0-2.865,5.4l5.783,8.533-2.545,10.47a3.461,3.461,0,0,0,4.736,4l11.12-4.8,10.251,4.764a3.462,3.462,0,0,0,4.873-3.717l-1.792-10.591,5.864-8.652A3.462,3.462,0,0,0,189.322,34.646Zm-13.117,12,.926,5.47-5.689-2.644a6.679,6.679,0,0,0-2.831-.038L162.445,52.1l1.266-5.21a3.463,3.463,0,0,0-.5-2.761l-2.981-4.4H164.5a3.461,3.461,0,0,0,2.952-1.655l2.53-4.132,2.53,4.132a3.461,3.461,0,0,0,2.952,1.655h4.269l-2.981,4.4A3.463,3.463,0,0,0,176.205,46.647Z"/><path d="M94.084,319.99h20.3a8.148,8.148,0,0,0,8.139-8.14v-7.027a25.488,25.488,0,1,0-36.577-1.807v8.834A8.149,8.149,0,0,0,94.084,319.99Zm-7.473-35.353A18.608,18.608,0,0,1,103.89,267.7q.615-.039,1.226-.039a18.56,18.56,0,0,1,11.749,32.92,3.462,3.462,0,0,0-1.266,2.677v8.594a1.217,1.217,0,0,1-1.216,1.216h-1.207v-7.039a3.462,3.462,0,1,0-6.923,0v7.039H103.96v-7.039a3.462,3.462,0,1,0-6.924,0v7.039H94.084a1.218,1.218,0,0,1-1.216-1.216V301.659a3.459,3.459,0,0,0-.993-2.427A18.611,18.611,0,0,1,86.611,284.637Z"/><path d="M223.855,319.99h20.3a8.149,8.149,0,0,0,8.14-8.14v-8.834a25.48,25.48,0,0,0-17.507-42.228,25.254,25.254,0,0,0-19.091,6.847,25.483,25.483,0,0,0,.02,37.187v7.028A8.149,8.149,0,0,0,223.855,319.99Zm-9.284-33.77a18.562,18.562,0,0,1,18.551-18.561q.61,0,1.226.039a18.557,18.557,0,0,1,12.015,31.534,3.46,3.46,0,0,0-.994,2.427V311.85a1.217,1.217,0,0,1-1.216,1.216H241.2v-7.039a3.462,3.462,0,0,0-6.924,0v7.039h-2.292v-7.039a3.462,3.462,0,1,0-6.924,0v7.039h-1.207a1.218,1.218,0,0,1-1.216-1.216v-8.594a3.465,3.465,0,0,0-1.266-2.677A18.506,18.506,0,0,1,214.571,286.22Z"/><path d="M135.491,221.913s3.721.611,3.912.611a3.462,3.462,0,0,0,.572-6.876l-3.333-.562a3.462,3.462,0,1,0-1.151,6.827Z"/><path d="M139.975,229.111l-3.333-.563a3.462,3.462,0,1,0-1.151,6.827l3.332.562a3.461,3.461,0,0,0,1.152-6.826Z"/><path d="M204.657,215.086l-3.332.562a3.462,3.462,0,0,0,.571,6.876c.191,0,3.913-.611,3.913-.611a3.462,3.462,0,0,0-1.152-6.827Z"/><path d="M204.657,228.548l-3.332.563a3.462,3.462,0,0,0,.571,6.876c.191,0,3.913-.612,3.913-.612a3.462,3.462,0,0,0-1.152-6.827Z"/><path d="M151.863,151.539l3.375,1.07a3.413,3.413,0,0,0,1.047.164,3.462,3.462,0,0,0,1.046-6.762l-3.375-1.071a3.461,3.461,0,0,0-2.093,6.6Z"/><path d="M180.04,100.076a3.46,3.46,0,0,0-4.822-.847l-6,4.207-6-4.207a3.461,3.461,0,1,0-3.975,5.668l3.944,2.767-3.944,2.767a3.461,3.461,0,1,0,3.975,5.667l6-4.206,6,4.206a3.461,3.461,0,1,0,3.976-5.667l-3.944-2.767,3.944-2.767A3.461,3.461,0,0,0,180.04,100.076Z"/><path d="M94.592,288.731s3.451,2.206,4.157,2.206a3.462,3.462,0,0,0,2.039-6.262l-2.125-1.544a3.462,3.462,0,0,0-4.071,5.6Z"/><path d="M111.462,290.937c.706,0,4.158-2.206,4.158-2.206a3.462,3.462,0,0,0-4.072-5.6l-2.124,1.544a3.462,3.462,0,0,0,2.038,6.262Z"/><path d="M239.489,290.937c.7,0,4.157-2.206,4.157-2.206a3.462,3.462,0,0,0-4.072-5.6l-2.124,1.544a3.462,3.462,0,0,0,2.039,6.262Z"/><path d="M222.618,288.731s3.451,2.206,4.157,2.206a3.462,3.462,0,0,0,2.039-6.262l-2.125-1.544a3.462,3.462,0,0,0-4.071,5.6Z"/><path d="M169.475,318.008a3.463,3.463,0,0,0,3.462-3.462v-3.341a14.908,14.908,0,0,0,8.67-5.711,12.253,12.253,0,0,0,2.149-9.678c-1.29-6.816-8.19-7.7-13.229-8.347-5.981-.767-8.053-1.435-8.535-3.873a5.316,5.316,0,0,1,.917-4.246,8,8,0,0,1,3.105-2.559v3.184a3.462,3.462,0,1,0,6.923,0V276.5a5.167,5.167,0,0,1,3.319,4.16,3.462,3.462,0,0,0,6.888-.7,12.258,12.258,0,0,0-10.207-10.621v-3.311a3.462,3.462,0,1,0-6.923,0v3.494a14.908,14.908,0,0,0-8.67,5.71,12.324,12.324,0,0,0-2.144,9.707c1.208,6.113,6.117,7.991,10.814,8.857v10.429a5.2,5.2,0,0,1-3.324-4.2,3.462,3.462,0,0,0-6.883.743,12.257,12.257,0,0,0,10.207,10.62v3.159A3.462,3.462,0,0,0,169.475,318.008Zm7.478-20.9a5.4,5.4,0,0,1-.912,4.272,8,8,0,0,1-3.1,2.56v-9.107C175.622,295.325,176.728,295.913,176.953,297.1Z"/></svg>