<?xml version="1.0" ?><svg id="outline" viewBox="0 0 340 340" xmlns="http://www.w3.org/2000/svg"><title/><path d="M73.264,251.976l-5.515,3.638-.148-.223a11.85,11.85,0,0,0-19.783,13.052l2.53,3.836a14.617,14.617,0,0,0,9.327,6.31,14.84,14.84,0,0,0,2.985.305,14.612,14.612,0,0,0,8.073-2.437l13.79-9.1c2.933,4.911,6.355,10.136,10.2,15.58-.051.126-.113.244-.161.371a14.822,14.822,0,0,0,.492,11.681l3.029,6.365a14.889,14.889,0,0,0,17.243,8.032c1.591,1.876,3.176,3.721,4.722,5.479a10.215,10.215,0,0,0,16.325-12.176l-2.481-3.951,5.054-2.4c.668,1.9,1.319,3.7,1.93,5.338a12.087,12.087,0,0,0,11.278,7.878,11.735,11.735,0,0,0,3.357-.491,59.031,59.031,0,0,0,13.7-6.167c-.915,7.36-2.166,14.861-3.818,22.478a3.464,3.464,0,0,0,4.188,4.1c4.254-1.017,8.441-1.872,11.614-2.5a3.462,3.462,0,0,0-1.352-6.79c-1.9.379-4.163.836-6.592,1.362,9.367-48.051,3.533-90.961-3.183-118.89-6.029-25.068-13.619-42.419-16.65-48.809a170.665,170.665,0,0,0,15.52-12.89,3.462,3.462,0,1,0-4.746-5.041,166.714,166.714,0,0,1-17.181,14.031,3.461,3.461,0,0,0-1.052,4.421c.255.487,16.411,31.963,22.742,79.05a38.794,38.794,0,0,1-13.518,19.968,12.005,12.005,0,0,0-11.075-.506l-6.125,2.818a12.028,12.028,0,0,0-6.813,13.243c.392,2.016.85,4.069,1.351,6.129l-2.639,1.269a2.275,2.275,0,0,1-2.937-.9,11.569,11.569,0,0,0-11.235-5.658L105.5,253.52l8.749-5.773.147.223a11.851,11.851,0,0,0,19.784-13.053l-2.53-3.834a14.712,14.712,0,0,0-20.384-4.179l-13.6,8.971C67.01,191.855,55.76,154.2,51.748,130.206c-4.42-26.434-1.271-42.45-1.239-42.6a3.462,3.462,0,0,0-.734-2.922c-17.947-21.47-15.642-46.9-15.617-47.154a3.462,3.462,0,0,0-6.206-2.442C-8.055,82.756,10.571,138.016,24.88,166.713,44.152,205.367,65.23,239.359,73.264,251.976Zm57.61,57.1a3.291,3.291,0,0,1-5.626,1.214c-1.162-1.32-2.348-2.7-3.54-4.09l6.221-3.942,2.583,4.112A3.251,3.251,0,0,1,130.874,309.078Zm39.313-62.135c.7,8.2,1.076,16.795,1,25.7L160.12,258.3A47.66,47.66,0,0,0,170.187,246.943Zm-29.313,15.042L147,259.166a5.128,5.128,0,0,1,6.229,1.532l17.653,22.88q-.252,5.124-.72,10.368a55.863,55.863,0,0,1-16.628,8.482,5.086,5.086,0,0,1-6.168-3.166c-2.543-6.838-7.146-20.04-9.4-31.644A5.121,5.121,0,0,1,140.874,261.985Zm-19.911,16.941a9.237,9.237,0,0,0,11.917,3.649l1.443-.693c.764,2.68,1.575,5.315,2.4,7.851L129.1,293.35a3.445,3.445,0,0,0-.367.2l-12.871,8.156a8.019,8.019,0,0,1-11.531-3.328l-3.029-6.364a8.02,8.02,0,0,1,4.067-10.808l9.752-4.2A4.637,4.637,0,0,1,120.963,278.926ZM109,272.108l-6.364,2.743a15.032,15.032,0,0,0-3.586,2.192c-3.272-4.712-6.2-9.236-8.739-13.5l9.411-6.21Zm6.081-39.425a7.79,7.79,0,0,1,10.792,2.212l2.53,3.835a4.927,4.927,0,1,1-8.226,5.427l-2.054-3.112a3.462,3.462,0,0,0-4.8-.983l-46.4,30.616a7.789,7.789,0,0,1-10.791-2.212L53.6,264.631c-1-2.066-1-5.257,1.4-6.826a5.062,5.062,0,0,1,2.7-.813c3.516-.061,6.175,5.324,6.175,5.324a3.462,3.462,0,0,0,4.8.983ZM27.471,48.163a75.733,75.733,0,0,0,15.97,39.708c-.741,4.883-2.374,20.114,1.4,43.036,4.083,24.766,15.587,63.571,47.041,108.782l-12.844,8.474C71.03,235.574,50.16,201.9,31.075,163.624,18.376,138.153,2.036,90.734,27.471,48.163Z"/><path d="M98.054,83.634c.3,1.863,2.685,3.053,4.618,2.546a189.459,189.459,0,0,1,27.378-7.019v30.833a11.389,11.389,0,0,0,0,21.7v14.423a3.462,3.462,0,1,0,6.923,0V131.7a11.389,11.389,0,0,0,0-21.7V99.584a69.2,69.2,0,0,0,4.912,7.564c.059.08,5.922,8.086,8.311,15.479a10.67,10.67,0,0,0,10.135,7.469h1.923a3.463,3.463,0,0,0,3.041-1.807l1.909-3.507,3.529,4.108a3.462,3.462,0,0,0,2.627,1.206h5.928a10.7,10.7,0,0,0,9.194-5.142l7.711,10.084c-7.125,4.84-12.2,7.971-12.319,8.045a3.463,3.463,0,0,0-.865,5.144q1.07,1.305,2.1,2.645a33.078,33.078,0,0,0-7.97,11.274c-.859,2.214-2.94,7.589-.832,13.159-3,6.436-2.937,12.614.066,17.756a22.647,22.647,0,0,0,2.468,19.356c-.932,4.666-1.585,14.011,5.5,21.72a20.069,20.069,0,0,0,10.59,6.03,8.219,8.219,0,0,0,1.8.2,7.918,7.918,0,0,0,6.031-12.976,18.674,18.674,0,0,1-3.982-9.377,7.551,7.551,0,0,0-.619-10.61,14.953,14.953,0,0,1-3.672-4.89,7.668,7.668,0,0,0,5.111-4.428,7.794,7.794,0,0,0-2.491-9.417,10.9,10.9,0,0,1-2.927-3.17,8.027,8.027,0,0,0,3.2-12.328,4.76,4.76,0,0,1-.892-5.148c9.4,16.5,16.162,35.008,21.011,53.4a3.49,3.49,0,0,0-.068.574,64.15,64.15,0,0,1-1.887,15.366,20.378,20.378,0,0,1-2.4,5.447c-4.413,7.051-4.71,13.567-.816,17.876a10.71,10.71,0,0,0,8.267,3.486,18.4,18.4,0,0,0,5.143-.8q.428,3.12.8,6.154c-9.684.5-15.365-2.4-18.484-5.077A10.726,10.726,0,0,0,197.5,262.49a10.291,10.291,0,0,0-6.762,7.955c-.026.143-.05.287-.068.413a10.671,10.671,0,0,0,8.781,11.875c.328.058.65.121.968.19a22.017,22.017,0,0,1,13.357,9.18c5.269,7.6,11.345,9.351,15.483,9.5.7,14.679.4,24.06.384,24.386a3.462,3.462,0,0,0,3.459,3.592c.062,0,.124,0,.186,0,45.342-2.44,57.937-27.489,60.718-35.109a3.462,3.462,0,0,0-6.5-2.373c-1.665,4.565-11.787,26.9-50.866,30.307a429.713,429.713,0,0,0-4.379-63.106c-4.817-33.26-15.916-79.284-41.455-112.39,7.646-4.883,26.859-17.583,41.231-30.726l6.9,11.357c-3.047,1.833-7.05,5.4-9.788,12.189a26.918,26.918,0,0,0,1.9,23.635c9.126,15.4,31.158,54.824,41,91.8a11.391,11.391,0,0,0-3.678,9.338,75.813,75.813,0,0,0,2.175,13.5,11.2,11.2,0,0,0,10.13,8.357q2.456.162,4.8.158a69.053,69.053,0,0,0,15.374-1.721c.228,1.266.433,2.447.609,3.509a10.213,10.213,0,0,1-1.084,6.469l-4.145,7.709a11.782,11.782,0,0,0,5.393,16.253l.707,2.4a11.815,11.815,0,0,0,15.39,7.72,29.356,29.356,0,0,0,3.909-1.761,21.992,21.992,0,0,0,10.68-24.26l-1.062-4.637a22.356,22.356,0,0,0-6.137-11.1,24.6,24.6,0,0,1-5.885-9.418,66.884,66.884,0,0,0,9.539-6.525,11.346,11.346,0,0,0,3.885-11.029,139.99,139.99,0,0,0-4.19-15.694,11.266,11.266,0,0,0-6.527-6.97c-6.957-20.089-31.527-82.693-75.454-110.831l-10.75-17.689a3.463,3.463,0,0,0-5.371-.684,194.71,194.71,0,0,1-16.412,13.987l-11.371-16.109a49.4,49.4,0,0,0,8.887-30.706q3.923.349,7.94.809a23.328,23.328,0,0,1,.478,2.577,20.942,20.942,0,0,0,14.712,17.2c11.925,3.737,17.348,11.459,16.12,22.951a3.467,3.467,0,0,0,4.162,3.754c.114-.025,11.741-2.372,19.248,3.893,4.733,3.95,7.008,10.664,6.76,19.955a3.461,3.461,0,0,0,1.328,2.819c.1.08,10.218,8.112,10.344,18.534a3.463,3.463,0,0,0,3.461,3.42h.044a3.463,3.463,0,0,0,3.419-3.5c-.136-11.173-8.342-19.741-11.655-22.748-.025-10.707-3.153-18.717-9.311-23.828-6.815-5.658-15.541-6.164-20.71-5.852-.177-12.594-7.556-21.744-21.139-26a14.009,14.009,0,0,1-9.912-11.437c-.033-.273-.077-.543-.117-.814q7.508,1.045,15.307,2.52a3.465,3.465,0,0,0,2.973-.836c.368-.333,2.3-2.249,4.252-7.188A15.207,15.207,0,0,0,239.6,51.634c-13.382-4.262-23-10.195-28.578-17.635-15.415-20.553-40.163-24.408-52.359-23.444-22.958,1.812-38.786,14.517-45.778,36.745a44.66,44.66,0,0,1-11.3,15.82,15.222,15.222,0,0,0-4.777,14.428Zm88.651,101.447a15.6,15.6,0,0,0,6.218,9.1.893.893,0,0,1,.332,1.162.8.8,0,0,1-.974.5,15.9,15.9,0,0,1-7.008-2.907l0,0c-3.583-2.988-4.914-6.668-3.988-10.979.178.146.351.292.539.437A19.261,19.261,0,0,0,186.705,185.081Zm6.991,28.2a.452.452,0,0,1-.5.334,9.537,9.537,0,0,1-8.217-4.42,16.273,16.273,0,0,1-2.781-9.959,23.016,23.016,0,0,0,4.7,2.32,20.732,20.732,0,0,0,6.633,10.988A.606.606,0,0,1,193.7,213.284Zm3.84,19.677a.933.933,0,0,1-1.076.452,13.283,13.283,0,0,1-7.017-3.961,16.341,16.341,0,0,1-4.227-10.9,17.581,17.581,0,0,0,6.983,1.92,25.064,25.064,0,0,0,5.252,11.352A.9.9,0,0,1,197.536,232.961ZM191.909,177.4a1.053,1.053,0,0,1,.07,1.318.986.986,0,0,1-1.175.428,13.24,13.24,0,0,1-4.763-2.245c-4.042-3.109-4.7-6.431-2.444-12.252a25.437,25.437,0,0,1,5.657-8.135q1.7,2.447,3.311,4.978C188.313,166.563,188.019,172.363,191.909,177.4ZM217.48,256.05c-2.432-2.691.57-8,1.547-9.56a27.389,27.389,0,0,0,2.85-6.161c1.1,5.463,2.046,10.849,2.86,16.094C222.427,257.232,219.152,257.9,217.48,256.05Zm1.984,32.108a28.911,28.911,0,0,0-17.588-12q-.6-.129-1.219-.239a3.754,3.754,0,0,1-3.137-4.063l.031-.185a3.428,3.428,0,0,1,2.272-2.656,3.746,3.746,0,0,1,3.734.693c4.145,3.559,11.561,7.454,23.777,6.718.689,6.536,1.183,12.657,1.537,18.225C226.252,294.386,222.784,292.947,219.464,288.158Zm100.82,3.89a15.449,15.449,0,0,1,4.215,7.68l1.061,4.637A15.05,15.05,0,0,1,318.329,321a22.7,22.7,0,0,1-2.993,1.347,4.872,4.872,0,0,1-6.365-3.181l-1.192-4.036a4.232,4.232,0,0,0-2.706-2.464,4.86,4.86,0,0,1-2.743-6.911l4.144-7.709a17.167,17.167,0,0,0,1.816-10.879c-.211-1.277-.463-2.714-.745-4.27q2.872-.974,5.447-2.106A31.335,31.335,0,0,0,320.284,292.048Zm4.075-26.246a61.2,61.2,0,0,1-43.233,13.637,4.342,4.342,0,0,1-3.883-3.194,69.011,69.011,0,0,1-1.97-12.274,4.447,4.447,0,0,1,3.11-4.643h0c7.991-2.449,23.434-7.68,37.092-15.21a4.557,4.557,0,0,1,2.2-.572,4.475,4.475,0,0,1,1.643.312,4.31,4.31,0,0,1,2.557,2.717,132.768,132.768,0,0,1,3.983,14.913A4.434,4.434,0,0,1,324.359,265.8Zm-9.9-28.719a11.546,11.546,0,0,0-2.331.972c-12.047,6.642-25.617,11.442-33.742,14.017-10.228-37.428-32.219-76.772-41.385-92.242a19.953,19.953,0,0,1-1.438-17.517c2.492-6.179,6.1-8.555,7.908-9.4C283.36,158.955,306.677,215.353,314.463,237.083ZM133.512,125.316a4.47,4.47,0,1,1,4.47-4.47A4.475,4.475,0,0,1,133.512,125.316Zm14.4-25.24a3.345,3.345,0,0,1-2.3-1.5,11.885,11.885,0,0,1-1.722-5.23,5.194,5.194,0,0,1,4.543-5.726,16.95,16.95,0,0,1,4.321.023,3.575,3.575,0,0,1,2.493,1.556,3.387,3.387,0,0,1,.493,2.781,13.606,13.606,0,0,1-4.9,7.335A3.752,3.752,0,0,1,147.909,100.076ZM201.894,131.1,191.757,117.84a19.384,19.384,0,0,1,4.3-4.76c.615-.489,1.226-1.022,1.831-1.588L208.414,126.4C206.182,128.046,203.994,129.617,201.894,131.1ZM191.75,107.66a26.288,26.288,0,0,0-8.807,12.852,3.791,3.791,0,0,1-3.655,2.661H174.95l-5.762-6.707a3.463,3.463,0,0,0-5.667.6l-3.322,6.1a3.777,3.777,0,0,1-3.416-2.672,63.51,63.51,0,0,0-6.7-13.57,10.684,10.684,0,0,0,5.058-2.177,20.663,20.663,0,0,0,7.3-11.016,10.357,10.357,0,0,0-1.449-8.4,10.5,10.5,0,0,0-7.339-4.555,23.921,23.921,0,0,0-6.083-.026,12.083,12.083,0,0,0-8.807,5.616,39.857,39.857,0,0,1-1.677-8.443,299.52,299.52,0,0,1,67.4-3.052C205.34,89.731,198.652,102.174,191.75,107.66ZM106.172,68.31a51.32,51.32,0,0,0,13.235-18.672c.02-.056.04-.112.057-.168,6.149-19.646,19.521-30.417,39.748-32.013.872-.069,1.838-.107,2.886-.107,11.012,0,30.935,4.2,43.39,20.8,6.461,8.615,17.234,15.37,32.014,20.078A8.237,8.237,0,0,1,242.49,62.6a8.1,8.1,0,0,1,.236,6.506,23.017,23.017,0,0,1-1.618,3.365c-70.29-12.913-122.738,1.3-137.058,5.919l-.453-2.223h0A8.273,8.273,0,0,1,106.172,68.31Z"/><path d="M211.852,304.448a12.144,12.144,0,0,0-3.369-12.546c-.274-.247-.553-.479-.836-.7a11.963,11.963,0,0,0-12.052-1.576,12.452,12.452,0,0,0-7.587,9.921,107.183,107.183,0,0,0,.307,27.1,3.462,3.462,0,0,0,3.419,2.917h14.634a3.461,3.461,0,0,0,3.461-3.522l-.211-12.166c0-.048,0-.1,0-.144a12.559,12.559,0,0,1,.9-5.49C210.994,307.062,211.446,305.784,211.852,304.448Zm-6.624-2.012c-.343,1.129-.722,2.2-1.125,3.181a19.528,19.528,0,0,0-1.406,8.454l.149,8.575h-8.054a101.9,101.9,0,0,1,.085-22.237,5.446,5.446,0,0,1,3.37-4.387,5.1,5.1,0,0,1,5.157.651h0c.152.118.3.243.449.376A5.2,5.2,0,0,1,205.228,302.436Z"/><path d="M175.461,79.75a10.5,10.5,0,0,0-6.875,5.231,10.363,10.363,0,0,0-.644,8.5,20.664,20.664,0,0,0,8.311,10.273,10.7,10.7,0,0,0,5.8,1.708,10.581,10.581,0,0,0,2.743-.36,10.325,10.325,0,0,0,6.515-5.234,18.719,18.719,0,0,0,1.982-8.473,12.075,12.075,0,0,0-11.777-12.248A23.977,23.977,0,0,0,175.461,79.75Zm10.908,11.587a11.867,11.867,0,0,1-1.218,5.369,3.347,3.347,0,0,1-2.145,1.708,3.749,3.749,0,0,1-3-.475,13.609,13.609,0,0,1-5.568-6.838,3.388,3.388,0,0,1,.227-2.815,3.576,3.576,0,0,1,2.336-1.787,17.106,17.106,0,0,1,3.811-.44c.162,0,.324,0,.485.008A5.2,5.2,0,0,1,186.369,91.337Z"/><path d="M147.043,44.409c.029.021,1.282.9,3.135,2.232-1.767,1.926-2.916,3.346-3.023,3.48a3.462,3.462,0,0,0,5.4,4.336c.027-.033,1.308-1.615,3.236-3.679,1.412,1.066,2.856,2.18,4.22,3.271a3.462,3.462,0,0,0,4.326-5.406c-1.149-.918-2.342-1.845-3.523-2.746a37.217,37.217,0,0,1,3.095-2.423,3.462,3.462,0,1,0-3.941-5.692,47.57,47.57,0,0,0-4.831,3.9c-2.327-1.689-3.989-2.851-4.13-2.949a3.461,3.461,0,1,0-3.962,5.677Z"/><path d="M163.7,101.358a3.462,3.462,0,0,0-3.462,3.462v1.3a3.462,3.462,0,0,0,6.924,0v-1.3A3.463,3.463,0,0,0,163.7,101.358Z"/><path d="M210.338,149.033l-2.709,1.767a3.462,3.462,0,0,0,3.782,5.8l2.71-1.767a3.462,3.462,0,0,0-3.783-5.8Z"/><path d="M226.382,170.839a3.459,3.459,0,0,0-4.681-1.43l-2.855,1.519a3.461,3.461,0,1,0,3.251,6.112l2.855-1.519A3.461,3.461,0,0,0,226.382,170.839Z"/><path d="M228.953,197.792a3.443,3.443,0,0,0,1.577-.383l2.877-1.476a3.462,3.462,0,0,0-3.16-6.16l-2.878,1.476a3.463,3.463,0,0,0,1.584,6.543Z"/><path d="M236.068,220.8a3.5,3.5,0,0,0,.555-.045l3.193-.515a3.462,3.462,0,0,0-1.1-6.835l-3.194.515a3.462,3.462,0,0,0,.547,6.88Z"/><path d="M241.532,244.992c.069,0,.138,0,.208-.007l3.228-.191a3.462,3.462,0,1,0-.41-6.911l-3.228.191a3.462,3.462,0,0,0,.2,6.918Z"/><path d="M244.76,271.241c.069,0,.138,0,.208-.006l3.229-.192a3.462,3.462,0,1,0-.41-6.911l-3.229.192a3.462,3.462,0,0,0,.2,6.917Z"/><path d="M246.873,298.86l3.234.035h.04a3.462,3.462,0,0,0,.037-6.923l-3.233-.036a3.462,3.462,0,0,0-.078,6.924Z"/></svg>